<?xml version="1.0" standalone="no"?>
<!DOCTYPE svg PUBLIC "-//W3C//DTD SVG 20010904//EN"
 "http://www.w3.org/TR/2001/REC-SVG-20010904/DTD/svg10.dtd">
<svg version="1.0" xmlns="http://www.w3.org/2000/svg"
 width="1024.000000pt" height="1024.000000pt" viewBox="0 0 1024.000000 1024.000000"
 preserveAspectRatio="xMidYMid meet">
<metadata>
Created by potrace 1.16, written by Peter Selinger 2001-2019
</metadata>
<g transform="translate(0.000000,1024.000000) scale(0.100000,-0.100000)"
fill="#000000" stroke="none">
<path d="M2102 5948 l3 -3103 3010 0 3009 0 7 25 c9 31 11 6106 3 6149 l-7 31
-3013 0 -3014 0 2 -3102z m5938 -3 l0 -3015 -2930 0 -2930 0 0 3015 0 3015
2930 0 2930 0 0 -3015z"/>
<path d="M2657 8503 c-9 -9 -9 -1535 1 -1549 4 -6 111 -71 237 -144 127 -74
232 -136 235 -139 3 -3 26 -17 52 -30 78 -39 78 -38 78 174 l0 185 -43 28
c-24 15 -119 70 -210 122 l-166 95 -1 378 c0 207 3 377 6 377 3 0 33 -16 67
-37 34 -20 121 -70 192 -111 72 -41 133 -80 137 -86 4 -6 8 -8 8 -4 0 4 33
-12 72 -36 l73 -43 1 -46 c1 -26 3 -49 5 -51 2 -2 54 -32 114 -67 61 -35 112
-67 113 -71 2 -4 8 -8 14 -8 6 0 85 -43 177 -96 91 -53 272 -157 401 -232 208
-119 595 -343 811 -468 42 -24 80 -44 85 -44 5 0 151 83 324 183 l315 183 44
-19 c107 -47 221 29 221 146 0 75 -61 144 -137 154 -89 12 -173 -57 -173 -143
l0 -41 -277 -160 c-153 -88 -288 -166 -300 -172 -19 -10 -32 -5 -95 32 -40 24
-154 90 -253 147 -210 121 -571 329 -700 404 -49 29 -136 79 -192 112 l-102
59 -3 193 -3 193 -135 78 c-74 43 -225 130 -335 193 -110 64 -298 172 -419
242 -120 69 -222 126 -226 126 -3 0 -10 -3 -13 -7z m3258 -1363 c42 -46 10
-120 -51 -120 -40 0 -74 32 -74 69 0 60 85 95 125 51z"/>
<path d="M7370 8406 c-96 -57 -265 -155 -375 -218 -110 -64 -384 -222 -609
-352 -225 -130 -412 -236 -416 -236 -4 0 -21 7 -36 15 -99 52 -224 -25 -224
-137 0 -135 134 -207 246 -133 35 23 55 58 62 111 l7 48 220 128 c121 70 228
128 237 128 18 0 91 -39 96 -52 2 -4 9 -8 15 -8 7 0 38 -16 70 -35 32 -19 62
-35 68 -35 5 0 115 61 243 135 129 74 237 135 240 135 3 0 6 -125 6 -279 l0
-279 83 -47 82 -48 0 -270 0 -270 -37 -24 -38 -23 0 -168 0 -168 66 -38 c36
-21 72 -45 79 -53 13 -12 15 -212 15 -1418 0 -772 3 -1411 6 -1420 5 -12 17
-15 53 -13 l46 3 3 2563 c2 2436 1 2562 -15 2561 -10 -1 -97 -47 -193 -103z
m-1450 -893 c37 -47 2 -113 -60 -113 -33 0 -70 40 -70 76 0 62 90 87 130 37z"/>
<path d="M7014 7688 c4 -13 8 -27 10 -33 1 -5 10 -25 20 -44 23 -43 57 -141
49 -141 -3 0 -1 -6 5 -12 5 -7 12 -26 16 -43 3 -16 8 -41 10 -55 3 -14 10 -43
15 -64 5 -22 10 -106 10 -189 2 -229 -33 -392 -126 -586 -42 -87 -48 -111 -25
-97 13 8 75 128 102 197 34 85 68 235 81 357 23 216 -27 487 -126 682 -26 51
-53 69 -41 28z"/>
<path d="M6425 7670 c-4 -6 -3 -16 3 -23 5 -7 29 -37 53 -67 189 -236 224
-572 88 -841 -34 -68 -35 -79 -11 -79 23 0 69 90 104 200 20 66 23 95 23 235
0 154 -2 163 -33 253 -37 108 -96 212 -159 283 -46 50 -57 57 -68 39z"/>
<path d="M6860 7626 c0 -7 14 -43 30 -80 17 -37 28 -71 25 -76 -4 -6 -2 -10 3
-10 5 0 13 -15 17 -32 4 -18 9 -37 11 -43 2 -5 6 -23 9 -40 3 -16 10 -44 16
-62 5 -17 10 -48 11 -70 1 -70 0 -207 -1 -245 -1 -43 -34 -189 -52 -233 -7
-17 -13 -36 -15 -44 -1 -7 -20 -51 -42 -96 -38 -78 -41 -95 -20 -95 14 0 96
177 119 255 64 222 64 449 0 670 -37 125 -111 260 -111 201z"/>
<path d="M6277 7593 c-15 -14 -5 -34 38 -79 44 -47 115 -153 115 -171 0 -6 7
-24 16 -42 21 -43 48 -215 38 -249 -4 -15 -6 -33 -5 -40 4 -24 -29 -133 -58
-191 -29 -59 -28 -90 4 -78 21 9 70 117 89 201 47 203 -13 435 -154 589 -61
66 -70 73 -83 60z"/>
<path d="M6708 7555 c-3 -3 7 -32 23 -63 86 -177 110 -405 64 -617 -11 -53
-33 -123 -46 -147 -7 -13 -14 -29 -15 -36 -1 -7 -12 -28 -23 -48 -25 -41 -27
-64 -6 -64 20 0 90 149 116 246 58 222 42 452 -44 654 -29 67 -52 92 -69 75z"/>
<path d="M6110 7490 c0 -10 16 -32 35 -47 74 -58 166 -210 151 -249 -3 -8 -1
-14 4 -14 16 0 11 -157 -6 -218 -41 -145 -154 -257 -306 -303 -73 -23 -105
-52 -68 -64 29 -9 75 2 158 41 174 79 292 263 292 454 0 147 -71 296 -188 393
-40 32 -72 36 -72 7z"/>
<path d="M5627 7342 c-67 -55 -107 -146 -107 -241 0 -57 3 -73 16 -78 33 -13
49 11 55 85 8 79 34 135 88 186 35 34 40 61 12 76 -16 8 -28 3 -64 -28z"/>
<path d="M6033 7373 c-24 -9 -13 -50 25 -90 60 -62 77 -106 77 -193 0 -67 -4
-81 -33 -133 -76 -131 -219 -177 -356 -114 -66 31 -91 34 -100 12 -14 -37 31
-72 128 -100 153 -45 331 37 403 184 25 49 28 68 28 151 0 84 -3 102 -28 151
-15 31 -47 75 -72 98 -45 41 -50 44 -72 34z"/>
<path d="M5384 7253 c-12 -27 -17 -69 -18 -148 -1 -128 6 -165 34 -165 29 0
31 12 18 88 -10 60 -9 82 6 155 10 47 15 90 12 96 -14 22 -36 10 -52 -26z"/>
<path d="M3583 7072 c-100 -59 -183 -114 -185 -122 -2 -8 -4 -202 -3 -432 0
-393 1 -417 19 -437 11 -12 23 -21 29 -21 5 0 54 -26 108 -57 l99 -58 -3 -420
-2 -419 -82 -49 -83 -48 0 -337 0 -337 -165 -95 -165 -95 2 -380 3 -380 90 0
90 0 3 325 3 325 64 38 c35 20 66 37 69 37 3 0 7 -163 8 -362 l3 -363 173 -3
172 -2 0 1630 c0 1080 3 1630 10 1630 6 0 10 -5 10 -11 0 -5 4 -8 8 -5 5 3 24
-5 43 -16 19 -12 63 -38 99 -58 174 -99 266 -154 272 -164 4 -6 8 -8 8 -4 0 4
35 -14 78 -39 42 -25 93 -55 112 -66 148 -83 246 -142 251 -149 3 -6 9 -9 13
-8 4 1 85 -43 180 -99 95 -55 180 -103 189 -106 10 -4 128 58 319 168 167 96
312 179 322 184 14 8 27 6 52 -9 43 -25 112 -20 155 11 93 69 92 194 -2 263
-92 68 -239 -6 -239 -120 l0 -40 -127 -73 c-70 -40 -132 -72 -138 -72 -5 0
-242 134 -525 298 -870 503 -912 527 -1024 592 -61 35 -115 63 -120 62 -6 -1
-93 -49 -193 -107z m2332 -622 c10 -11 15 -20 10 -20 -4 0 -2 -7 5 -15 10 -12
8 -21 -7 -47 -37 -65 -133 -41 -133 32 0 40 31 70 73 70 21 0 41 -8 52 -20z"/>
<path d="M5507 6773 c-36 -35 94 -135 220 -169 61 -16 65 -16 81 0 16 16 16
18 -1 31 -10 7 -34 16 -54 20 -49 9 -128 49 -180 91 -42 34 -54 39 -66 27z"/>
<path d="M5367 6683 c-22 -21 8 -58 108 -134 61 -46 160 -93 180 -85 32 12 11
35 -67 74 -47 23 -110 65 -145 96 -64 59 -66 60 -76 49z"/>
<path d="M6400 5671 l0 -999 86 -47 c69 -38 88 -45 95 -34 5 8 9 179 9 381 l0
366 65 37 65 36 2 289 3 290 115 -66 c63 -36 117 -70 121 -75 3 -6 9 -10 13
-10 3 1 42 -18 86 -41 l80 -43 0 -716 c0 -394 3 -718 6 -722 4 -3 25 3 48 15
22 11 43 20 45 19 2 -2 7 1 10 6 3 5 23 19 44 32 l37 23 0 868 0 868 -282 163
c-156 89 -359 207 -453 261 -93 54 -176 98 -182 98 -10 0 -13 -203 -13 -999z"/>
<path d="M6260 6614 c-30 -24 -88 -61 -127 -81 -51 -25 -73 -42 -73 -55 0 -25
22 -23 90 11 109 54 210 137 196 160 -12 19 -29 12 -86 -35z"/>
<path d="M2978 5814 l-3 -476 -160 -92 -160 -92 0 -885 0 -884 90 0 90 0 3
824 c2 806 4 863 32 846 5 -3 10 -1 12 3 4 10 128 84 128 76 0 -3 7 1 15 9 8
8 44 31 80 51 l65 37 0 484 0 484 -77 45 c-43 25 -86 46 -95 46 -17 0 -18 -31
-20 -476z"/>
<path d="M6774 5251 c-95 -58 -97 -201 -5 -269 l31 -23 0 -367 -1 -367 -199
-114 -200 -114 2 -306 3 -306 170 0 170 0 3 92 3 91 -78 44 -78 44 -2 164 -3
165 113 63 c61 35 133 76 160 92 l47 30 0 398 0 397 36 23 c44 29 78 100 70
146 -9 45 -41 93 -78 116 -43 26 -122 27 -164 1z m131 -86 c32 -31 32 -69 0
-100 -38 -39 -86 -30 -114 22 -24 45 14 103 67 103 12 0 34 -11 47 -25z"/>
<path d="M2191 2251 c-11 -11 -22 -35 -25 -53 -29 -184 -60 -435 -61 -483 l0
-60 30 0 c36 0 35 -6 70 260 39 289 32 272 71 168 19 -48 35 -95 37 -103 1 -8
6 -20 9 -26 4 -6 27 -66 52 -132 61 -166 70 -180 114 -176 19 1 42 9 50 17 8
9 57 127 108 264 54 143 94 237 95 223 3 -39 7 -66 28 -200 11 -69 22 -150 25
-180 3 -30 7 -64 10 -75 2 -11 5 -23 5 -27 1 -4 10 -12 21 -18 15 -8 24 -6 38
8 18 18 18 23 2 138 -10 65 -25 178 -35 249 -21 164 -31 202 -55 215 -31 16
-65 12 -86 -12 -11 -13 -58 -124 -104 -248 -45 -124 -87 -234 -93 -244 -7 -15
-27 28 -98 220 -49 131 -97 250 -107 264 -25 33 -74 38 -101 11z"/>
<path d="M3257 2252 c-26 -16 -46 -50 -95 -167 -116 -273 -162 -393 -160 -410
2 -15 10 -20 32 -20 32 0 35 4 71 88 l25 57 195 0 c122 0 195 -4 195 -10 0 -5
14 -41 31 -79 29 -65 32 -68 57 -62 50 13 51 10 -154 495 -28 67 -44 93 -68
107 -38 23 -92 24 -129 1z m113 -107 c10 -24 20 -52 22 -62 2 -10 6 -20 10
-23 3 -3 22 -43 41 -90 l36 -85 -80 -3 c-43 -2 -114 -2 -157 0 l-79 3 64 153
c63 147 66 152 94 152 26 0 32 -6 49 -45z"/>
<path d="M3761 2256 c-8 -9 -11 -99 -9 -307 l3 -294 29 -3 c16 -2 32 2 37 10
14 22 11 582 -3 596 -16 16 -43 15 -57 -2z"/>
<path d="M4019 2251 l-24 -19 -3 -271 c-3 -295 0 -314 46 -309 l27 3 5 264 5
264 138 -179 c76 -99 143 -186 150 -194 7 -8 33 -42 59 -75 25 -34 53 -67 62
-74 25 -21 78 -16 98 10 16 19 18 49 18 299 0 294 -2 307 -47 298 -26 -5 -29
-40 -27 -301 0 -131 -2 -235 -6 -230 -5 4 -97 123 -205 263 -109 140 -202 258
-209 262 -20 14 -64 8 -87 -11z"/>
<path d="M4905 2247 c-61 -29 -108 -75 -137 -136 -20 -42 -23 -64 -26 -232 -4
-202 1 -229 43 -229 32 0 45 27 45 94 l0 56 148 0 c102 0 152 4 160 12 17 17
15 55 -4 62 -9 3 -81 6 -160 6 l-144 0 0 93 c0 89 2 96 31 136 40 56 93 78
189 80 83 2 102 12 98 50 -3 26 -4 26 -98 29 -82 2 -102 -1 -145 -21z"/>
<path d="M5368 2248 c-66 -38 -72 -68 -73 -334 0 -254 2 -268 52 -262 l28 3 3
98 3 97 100 0 101 0 101 -100 c78 -76 108 -100 129 -100 18 0 29 6 33 21 6 17
-7 36 -69 98 -42 42 -76 79 -76 83 0 3 11 9 25 12 44 11 103 79 120 141 15 50
15 60 0 110 -17 61 -67 118 -121 141 -23 10 -76 14 -176 14 -127 0 -147 -3
-180 -22z m361 -92 c70 -67 55 -167 -31 -212 -19 -10 -67 -14 -173 -14 l-145
0 0 108 c0 158 -4 154 175 150 144 -3 144 -3 174 -32z"/>
<path d="M6231 2243 c-22 -20 -56 -89 -122 -248 -142 -342 -131 -310 -111
-334 28 -33 54 -12 87 68 l28 71 194 0 c192 0 199 -1 194 -32 0 -5 3 -8 7 -8
5 0 19 -25 31 -55 20 -48 26 -55 51 -55 19 0 31 6 35 19 4 12 -33 113 -102
278 -123 296 -141 323 -217 323 -36 0 -52 -6 -75 -27z m111 -75 c11 -18 75
-170 113 -270 7 -17 -4 -18 -149 -18 -86 0 -156 2 -156 4 0 6 107 262 119 285
15 28 55 27 73 -1z"/>
<path d="M6831 2251 c-12 -12 -23 -45 -29 -87 -18 -120 -34 -224 -38 -262 -3
-20 -9 -64 -14 -97 -12 -76 -13 -152 -1 -159 5 -4 20 -2 34 3 26 10 29 25 57
246 7 50 16 112 21 138 5 26 9 66 9 87 0 22 4 40 9 40 9 0 56 -122 56 -145 0
-5 3 -12 7 -15 11 -9 87 -223 82 -232 -3 -4 -1 -8 4 -8 5 0 17 -20 26 -45 10
-25 27 -52 39 -60 24 -17 65 -11 87 15 9 9 56 126 105 258 99 267 93 262 114
92 7 -52 19 -141 27 -197 8 -56 13 -106 13 -110 -1 -4 3 -21 9 -36 10 -23 17
-28 40 -25 39 4 39 26 -3 319 -31 212 -40 258 -58 277 -26 28 -68 29 -92 2
-18 -19 -100 -210 -110 -254 -6 -27 -87 -239 -94 -248 -4 -4 -47 101 -96 234
-49 132 -98 251 -108 264 -23 29 -69 32 -96 5z"/>
<path d="M7804 2251 c-62 -28 -119 -85 -143 -142 -18 -40 -22 -71 -23 -147 0
-53 2 -106 6 -117 29 -82 90 -153 156 -179 32 -13 79 -19 170 -21 143 -3 170
3 170 40 0 37 -33 45 -170 44 -128 -1 -153 6 -202 58 -30 31 -48 72 -48 109
l0 24 183 0 c189 0 207 4 207 42 0 32 -35 38 -214 38 l-176 0 0 23 c0 37 43
110 79 134 18 13 37 20 42 18 4 -3 10 -1 14 5 4 6 58 10 133 10 70 0 133 4
140 9 8 5 12 21 10 37 l-3 29 -145 2 c-124 2 -151 0 -186 -16z"/>
<path d="M2171 1474 c-31 -26 -31 -26 -31 -130 0 -98 2 -107 25 -129 28 -29
57 -32 76 -9 11 14 10 19 -11 36 -23 18 -24 26 -23 101 2 71 5 84 22 96 26 17
27 37 2 51 -26 13 -25 14 -60 -16z"/>
<path d="M2484 1491 c-34 -15 -38 -28 -39 -129 -1 -104 10 -135 42 -116 10 6
19 23 21 38 3 23 8 26 41 26 61 0 98 18 115 55 34 70 -10 127 -102 132 -31 1
-67 -1 -78 -6z"/>
<path d="M2892 1490 c-12 -5 -27 -21 -32 -35 -15 -40 -13 -178 4 -200 19 -27
46 -13 46 25 0 25 4 30 24 30 13 0 43 -16 67 -35 23 -20 49 -35 58 -33 24 5
25 42 1 63 l-20 18 22 24 c31 33 28 87 -6 121 -20 21 -37 26 -83 29 -32 1 -68
-2 -81 -7z"/>
<path d="M3553 1493 c-21 -7 -15 -43 24 -142 39 -99 59 -119 106 -107 24 6 45
44 96 173 18 46 19 54 5 67 -28 29 -37 17 -101 -133 l-19 -45 -38 92 c-38 89
-49 103 -73 95z"/>
<path d="M4036 1489 c-14 -9 -71 -114 -67 -126 0 -2 -9 -24 -20 -50 -17 -41
-18 -48 -5 -61 19 -19 44 -9 56 23 9 22 15 25 62 25 48 0 55 -3 70 -30 19 -33
39 -38 57 -16 10 11 3 36 -30 116 -50 120 -76 145 -123 119z"/>
<path d="M4346 1485 c-23 -23 -8 -44 35 -51 l38 -6 3 -92 c3 -90 3 -91 28 -91
25 0 25 1 28 93 3 90 3 92 27 93 14 1 31 2 38 3 17 1 22 47 5 57 -7 5 -52 9
-100 9 -64 0 -90 -4 -102 -15z"/>
<path d="M4792 1489 c-46 -13 -72 -60 -72 -127 0 -48 4 -58 34 -88 34 -34 37
-35 103 -32 65 3 68 4 68 28 0 23 -4 25 -56 28 -41 2 -62 8 -74 22 -18 20 -17
20 49 20 50 0 68 4 72 15 11 28 -16 45 -72 45 -30 0 -54 5 -54 10 0 14 16 19
80 22 49 3 55 5 58 27 2 13 -2 28 -10 32 -17 11 -84 10 -126 -2z"/>
<path d="M5133 1493 c-19 -7 -15 -41 6 -52 16 -9 19 -24 20 -99 2 -83 0 -90
-19 -95 -16 -4 -21 -12 -18 -29 4 -32 49 -37 77 -9 19 19 21 33 21 134 0 96
-3 116 -17 129 -21 19 -53 28 -70 21z"/>
<path d="M5723 1493 c-9 -3 -13 -34 -13 -104 0 -93 2 -102 25 -125 22 -22 32
-25 83 -22 53 3 57 5 57 28 0 23 -5 25 -50 30 l-50 5 -3 87 c-2 71 -6 89 -20
97 -9 4 -23 6 -29 4z"/>
<path d="M6076 1484 c-12 -12 -16 -37 -16 -110 0 -102 10 -134 39 -134 27 0
31 19 31 135 0 93 -2 105 -19 115 -15 7 -23 6 -35 -6z"/>
<path d="M6839 1489 c-18 -11 -26 -197 -10 -228 16 -29 39 -26 51 5 11 28 13
166 4 201 -7 25 -25 35 -45 22z"/>
<path d="M7103 1493 c-18 -7 -16 -50 3 -57 9 -3 26 -6 38 -6 22 0 23 -3 21
-74 -2 -92 7 -119 37 -114 22 3 23 8 26 94 l3 92 39 6 c34 5 40 10 40 30 0 13
-7 27 -16 30 -19 7 -173 7 -191 -1z"/>
<path d="M7545 1490 c-38 -15 -67 -57 -72 -104 -11 -94 37 -146 135 -146 41 0
63 5 72 15 22 26 -5 45 -64 45 -47 0 -76 12 -76 32 0 4 28 8 63 10 59 3 62 4
62 28 0 24 -3 25 -63 28 -74 3 -82 25 -11 30 87 5 115 24 83 57 -17 16 -94 20
-129 5z"/>
<path d="M7913 1490 c-34 -14 -43 -42 -43 -129 0 -69 3 -84 21 -102 18 -18 30
-21 86 -17 59 4 69 8 94 36 24 27 29 41 29 85 0 69 -26 112 -77 126 -45 13
-80 13 -110 1z"/>
<path d="M6361 1473 c-12 -24 -34 -200 -27 -218 3 -8 14 -15 25 -15 21 0 36
37 43 105 3 26 6 22 28 -35 23 -60 27 -65 55 -65 28 0 32 5 55 64 l25 64 10
-64 c9 -55 13 -64 33 -67 32 -5 36 17 22 121 -14 109 -23 127 -55 127 -29 0
-46 -24 -70 -97 -9 -29 -18 -53 -19 -53 -2 0 -13 28 -26 63 -12 34 -27 68 -32
75 -15 18 -56 15 -67 -5z"/>
</g>
</svg>
